<svg xmlns="http://www.w3.org/2000/svg" width="540" height="540" viewBox="0 0 142.875 142.875" xmlns:v="https://vecta.io/nano"><rect width="142.875" height="142.875" ry="26.594" fill="#0080ff"/><path d="M49.255 23.379H38.248V6.615h-5.334c-1.355 10.837-5.927 16.51-13.97 17.441v4.403h6.011v20.235c0 6.943.339 8.975 1.778 11.345 1.778 2.963 5.419 4.657 10.245 4.657s8.636-1.609 10.922-4.572c2.117-2.794 3.387-6.773 3.387-10.499 0-.423 0-1.101-.085-1.947h-4.487c.085 6.35-1.863 9.821-5.334 9.821-2.455 0-3.133-1.524-3.133-7.281V28.459h11.007zm58.081 27.009l-7.789-18.965c-.339-.677-.508-1.355-.508-1.778 0-1.439 1.355-1.947 4.572-1.947h.593V23.38H80.581v4.318c3.133 0 4.064.593 5.165 3.133l2.117 5.165-6.096 14.393-7.366-18.711c-.593-1.524-.593-1.524-.593-2.032 0-1.524.762-1.947 4.149-1.947v-4.318H54.589v4.318c3.302.169 4.487 1.101 6.011 4.741l13.801 32.173h6.435l9.652-22.352 9.059 22.352h6.35l13.293-29.718c2.455-5.503 4.149-7.027 7.959-7.197V23.38h-19.135v4.318h.593c3.556 0 5.842 1.524 5.842 3.895 0 .931-.423 2.371-1.185 4.403zM38.502 76.296l-19.981.593v4.318h1.27c5.249.085 5.503.423 5.419 8.213v31.835 3.979.593c-.085 1.185-.169 1.693-.508 2.201-.508.762-2.201 1.101-5.842 1.185h-.339v4.233h27.347v-4.233h-.931c-5.757-.169-6.435-.593-6.435-3.725v-4.233-9.144c3.387 3.725 7.197 5.503 12.023 5.503 11.43 0 19.981-9.567 19.981-22.352 0-11.684-7.874-20.235-18.711-20.235-5.842 0-9.483 1.863-13.293 6.689zm9.483 5.08c5.165 0 7.874 5.249 7.874 15.325 0 9.567-3.133 15.155-8.551 15.155-5.673 0-8.89-5.334-8.89-14.901 0-10.075 3.387-15.579 9.567-15.579zm57.192 21.59l-8.975-18.373c-.423-.847-.677-1.609-.677-2.201 0-1.27.931-1.778 2.963-1.778h1.524v-4.318H75.967v4.318c3.133.085 3.81.593 5.165 3.387l17.357 33.697-1.947 3.641c-2.201 4.318-4.826 6.689-7.281 6.689-.339 0-.677-.254-.677-.508 0-.085 0-.169.085-.254.508-.847.677-1.693.677-2.879 0-3.387-2.625-5.757-6.35-5.757-4.149 0-7.366 3.133-7.366 7.366 0 4.741 4.149 7.789 10.499 7.789 7.112 0 12.107-4.318 16.764-14.309l14.817-31.919c2.455-5.249 4.149-6.773 7.705-6.943v-4.318h-19.05v4.318h.931c3.641 0 5.673 1.185 5.673 3.387 0 .931-.339 2.371-.762 3.387z" fill="#fff"/></svg>